<?xml version="1.0" encoding="iso-8859-1"?>
   <!DOCTYPE svg PUBLIC "-//W3C//DTD SVG 1.0//EN"
     "http://www.w3.org/TR/2001/
      REC-SVG-20010904/DTD/svg10.dtd"><svg xmlns="http://www.w3.org/2000/svg" width="328" height="234.2857142857143" aria-label="A chart." style="overflow: hidden;"><defs id="defs"><clipPath id="_ABSTRACT_RENDERER_ID_591"><rect x="16" y="12" width="295" height="211"/></clipPath></defs><rect x="0" y="0" width="328" height="234.2857142857143" stroke="none" stroke-width="0" fill="#ffffff"/><g><rect x="16" y="12" width="295" height="211" stroke="none" stroke-width="0" fill-opacity="0" fill="#ffffff"/><g clip-path="url(http://ceagon.com/tools/charts#_ABSTRACT_RENDERER_ID_591)"><g><rect x="16" y="222" width="295" height="1" stroke="none" stroke-width="0" fill="#cccccc"/><rect x="16" y="170" width="295" height="1" stroke="none" stroke-width="0" fill="#cccccc"/><rect x="16" y="117" width="295" height="1" stroke="none" stroke-width="0" fill="#cccccc"/><rect x="16" y="65" width="295" height="1" stroke="none" stroke-width="0" fill="#cccccc"/><rect x="16" y="12" width="295" height="1" stroke="none" stroke-width="0" fill="#cccccc"/></g><g><rect x="31" y="136" width="45" height="86" stroke="none" stroke-width="0" fill="#f2d9c2"/><rect x="104" y="154" width="45" height="68" stroke="none" stroke-width="0" fill="#f2d9c2"/><rect x="178" y="74" width="45" height="148" stroke="none" stroke-width="0" fill="#f2d9c2"/><rect x="251" y="39" width="45" height="183" stroke="none" stroke-width="0" fill="#f2d9c2"/></g><g><rect x="16" y="222" width="295" height="1" stroke="none" stroke-width="0" fill="#333333"/></g></g><g/><g><g><text text-anchor="end" x="16" y="222.5" font-family="Arial" font-size="0" stroke="none" stroke-width="0" fill="#444444">0</text></g><g><text text-anchor="end" x="16" y="170" font-family="Arial" font-size="0" stroke="none" stroke-width="0" fill="#444444">600</text></g><g><text text-anchor="end" x="16" y="117.5" font-family="Arial" font-size="0" stroke="none" stroke-width="0" fill="#444444">1,200</text></g><g><text text-anchor="end" x="16" y="65" font-family="Arial" font-size="0" stroke="none" stroke-width="0" fill="#444444">1,800</text></g><g><text text-anchor="end" x="16" y="12.5" font-family="Arial" font-size="0" stroke="none" stroke-width="0" fill="#444444">2,400</text></g></g></g><g/></svg>