<?xml version="1.0" encoding="iso-8859-1"?>
   <!DOCTYPE svg PUBLIC "-//W3C//DTD SVG 1.0//EN"
     "http://www.w3.org/TR/2001/
      REC-SVG-20010904/DTD/svg10.dtd"><svg xmlns="http://www.w3.org/2000/svg" width="328" height="328" aria-label="A chart." style="overflow: hidden;"><defs id="defs"/><rect x="0" y="0" width="328" height="328" stroke="none" stroke-width="0" fill="#ffffff"/><g><path d="M164,164L164,17A147,147,0,0,1,296.63402073787415,100.61848421735895L164,164A0,0,0,0,0,164,164" stroke="#ffffff" stroke-width="14" fill="#f2d9c2"/></g><g><path d="M164,164L296.63402073787415,100.61848421735895A147,147,0,0,1,297.16407980095596,226.26016263040623L164,164A0,0,0,0,0,164,164" stroke="#ffffff" stroke-width="14" fill="#804925"/></g><g><path d="M164,164L60.71516139783232,268.6003925180215A147,147,0,0,1,164,17L164,164A0,0,0,0,0,164,164" stroke="#ffffff" stroke-width="14" fill="#2e0909"/></g><g><path d="M164,164L297.16407980095596,226.26016263040628A147,147,0,0,1,60.71516139783232,268.6003925180215L164,164A0,0,0,0,0,164,164" stroke="#ffffff" stroke-width="14" fill="#4a1913"/></g><g/><circle cx="422" cy="164" r="0" fill="#FFFFFF" stroke="none" stroke-width="0"/></svg>