<?xml version="1.0" encoding="utf-8"?>
<!-- Generator: Adobe Illustrator 22.0.0, SVG Export Plug-In . SVG Version: 6.00 Build 0)  -->
<svg version="1.1" id="Layer_1" xmlns="http://www.w3.org/2000/svg" xmlns:xlink="http://www.w3.org/1999/xlink" x="0px" y="0px"
	 viewBox="0 0 24 24" style="enable-background:new 0 0 24 24;" xml:space="preserve">
<style type="text/css">
	.st0{fill:#FFFFFF;}
</style>
<g>
	<path class="st0" d="M24,7.5c-0.4-3.9-3.1-6.7-6.5-6.7c-2.3,0-4.4,1.2-5.5,3.2c-1.2-2-3.2-3.2-5.4-3.2C3.1,0.8,0.4,3.6,0,7.5
		C0,7.7-0.1,8.6,0.2,10c0.5,2.1,1.6,4,3.3,5.5l8.4,7.6l8.5-7.6c1.7-1.5,2.8-3.4,3.3-5.5C24.1,8.6,24,7.7,24,7.5z M22.9,9.8
		c-0.5,1.9-1.5,3.7-3,5.1l-7.9,7l-7.7-7c-1.5-1.4-2.6-3.1-3-5.1C0.8,8.4,1,7.6,1,7.6l0,0c0.3-3.4,2.6-5.8,5.6-5.8
		c2.2,0,4.1,1.3,5,3.5l0.4,1l0.4-1c0.9-2.1,2.9-3.5,5.1-3.5c2.9,0,5.3,2.5,5.6,5.9C23,7.6,23.2,8.4,22.9,9.8z"/>
</g>
</svg>
